<svg width="48" height="48" viewBox="0 0 24 24" fill="none" xmlns="http://www.w3.org/2000/svg">
  <!-- Fundo escuro do ícone -->
  <rect width="24" height="24" rx="6" fill="#111827"/>

  <!-- Símbolo simplificado do GitHub -->
  <path
    fill="#FFFFFF"
    d="M12 2.5C6.75 2.5 2.5 6.75 2.5 12c0 4.2 2.73 7.76 6.52 9.02.48.09.66-.21.66-.46v-1.62c-2.65.58-3.21-1.12-3.21-1.12-.44-1.1-1.07-1.4-1.07-1.4-.87-.6.07-.59.07-.59.96.07 1.47.99 1.47.99.86 1.46 2.25 1.04 2.8.8.09-.62.34-1.04.61-1.28-2.12-.24-4.35-1.06-4.35-4.71 0-1.04.37-1.89.98-2.56-.1-.24-.43-1.22.09-2.52 0 0 .81-.26 2.62.98A9.1 9.1 0 0 1 12 7.21c.81 0 1.63.11 2.39.32 1.81-1.24 2.61-.98 2.61-.98.53 1.3.2 2.28.1 2.52.61.67.98 1.52.98 2.56 0 3.66-2.24 4.47-4.37 4.71.35.3.66.9.66 1.81v2.41c0 .25.17.56.67.46A9.51 9.51 0 0 0 21.5 12c0-5.25-4.25-9.5-9.5-9.5Z"
  />
</svg>
