<svg width="48" height="48" viewBox="0 0 48 48" fill="none" xmlns="http://www.w3.org/2000/svg">
  <!-- Fundo vermelho do YouTube -->
  <rect width="48" height="48" rx="14" fill="#FF0033" />

  <!-- Corpo branco do botão/play -->
  <path
    d="M35 24C35 24 35 19.8 34.45 17.9C34.15 16.85 33.2 16 32.1 15.75C30.05 15.25 24 15.25 24 15.25C24 15.25 17.95 15.25 15.9 15.75C14.8 16 13.85 16.85 13.55 17.9C13 19.8 13 24 13 24C13 24 13 28.2 13.55 30.1C13.85 31.15 14.8 32 15.9 32.25C17.95 32.75 24 32.75 24 32.75C24 32.75 30.05 32.75 32.1 32.25C33.2 32 34.15 31.15 34.45 30.1C35 28.2 35 24 35 24Z"
    fill="white"
  />

  <!-- Triângulo vermelho do play -->
  <path d="M22 20.5L28.5 24L22 27.5V20.5Z" fill="#FF0033" />
</svg>
